<svg t="1586932056781" class="icon" viewBox="0 0 1024 1024" version="1.1" xmlns="http://www.w3.org/2000/svg" p-id="2056" width="32" height="32"><path d="M668.832 326.93c9.388 0 17 7.61 17 17 0 9.388-7.612 17-17 17-14.199 0-27.619 4.836-38.442 13.577-10.233 8.266-25.574 2.275-27.498-10.738C596.324 319.35 557.957 286 512.5 286c-45.456 0-83.819 33.35-90.392 77.77-1.925 13.013-17.265 19.002-27.498 10.737-10.823-8.741-24.243-13.578-38.442-13.578-33.789 0-61.168 27.34-61.168 61.054 0 33.71 27.38 61.049 61.168 61.049 5.295 0 10.492-0.672 15.496-1.982 10.774-2.82 21.306 5.308 21.306 16.446V738h239.06V497.496c0-11.136 10.529-19.265 21.303-16.447a61.118 61.118 0 0 0 15.499 1.983c33.788 0 61.168-27.339 61.168-61.049 0-16.951-6.934-32.761-18.99-44.218-6.806-6.468-7.08-17.228-0.613-24.034 6.468-6.806 17.228-7.08 24.034-0.613C753.173 370.93 764 395.616 764 421.983c0 52.5-42.614 95.049-95.168 95.049-0.936 0-1.87-0.014-2.802-0.04V755c0 9.389-7.61 17-17 17H375.97c-9.39 0-17-7.611-17-17V516.991c-0.932 0.027-1.866 0.04-2.802 0.04-52.554 0-95.168-42.549-95.168-95.048 0-52.504 42.613-95.054 95.168-95.054 13.394 0 26.379 2.785 38.278 8.016C411.918 286.215 458.57 252 512.5 252c53.932 0 100.586 34.215 118.055 82.944 11.899-5.23 24.883-8.015 38.277-8.015z" p-id="2057" fill="#707070"></path><path d="M428.07 697.962c-9.388 0.039-17.031-7.54-17.07-16.93-0.039-9.388 7.54-17.031 16.93-17.07l223-0.924c9.388-0.039 17.031 7.54 17.07 16.93 0.039 9.388-7.54 17.031-16.93 17.07l-223 0.924z" p-id="2058" fill="#707070"></path><path d="M448 607c0-9.389 7.611-17 17-17s17 7.611 17 17v74c0 9.389-7.611 17-17 17s-17-7.611-17-17v-74zM543 607c0-9.389 7.611-17 17-17s17 7.611 17 17v74c0 9.389-7.611 17-17 17s-17-7.611-17-17v-74z" p-id="2059" fill="#707070"></path></svg>