<svg t="1586932337402" class="icon" viewBox="0 0 1184 1024" version="1.1" xmlns="http://www.w3.org/2000/svg" p-id="5429" width="32" height="32"><path d="M596.864 964.8c-31.722667 0-61.674667-11.242667-84.288-31.68L211.626667 661.290667a110.869333 110.869333 0 0 1-11.989334-12.821334c-85.205333-59.264-135.978667-157.226667-135.978666-262.698666 0-174.976 138.773333-317.333333 309.333333-317.333334 85.376 0 165.696 35.648 224 98.645334 58.325333-62.997333 138.624-98.645333 224-98.645334 170.56 0 309.333333 142.357333 309.333333 317.333334 0 105.877333-51.072 204.032-136.789333 263.232a109.034667 109.034667 0 0 1-11.456 12.266666L681.130667 933.098667c-22.613333 20.437333-52.565333 31.701333-84.266667 31.701333zM373.013333 111.104c-147.050667 0-266.666667 123.221333-266.666666 274.666667 0 92.48 44.885333 178.218667 120.064 229.333333a21.290667 21.290667 0 0 1 4.970666 4.714667c3.072 4.010667 5.888 7.146667 8.832 9.813333l300.949334 271.808c29.504 26.645333 81.813333 26.645333 111.381333 0l300.906667-271.808c2.709333-2.453333 5.397333-5.461333 8.448-9.408 1.386667-1.813333 3.072-3.370667 4.949333-4.672 75.648-51.050667 120.789333-136.938667 120.789333-229.781333 0-151.445333-119.616-274.666667-266.666666-274.666667-80.704 0-156.224 37.184-207.232 101.994667a21.312 21.312 0 0 1-33.536 0c-50.922667-64.810667-126.442667-101.994667-207.189334-101.994667z" p-id="5430" fill="#707070"></path></svg>