<svg t="1586932492314" class="icon" viewBox="0 0 1024 1024" version="1.1" xmlns="http://www.w3.org/2000/svg" p-id="12027" width="32" height="32"><path d="M872.7 451.8c-10.6 0-19.3 8.6-19.3 19.3v385.6c0 10.7-8.6 19.3-19.3 19.3H197.8c-10.6 0-19.3-8.6-19.3-19.3V162.6c0-10.6 8.6-19.3 19.3-19.3h404.9c10.7 0 19.3-8.6 19.3-19.3 0-10.7-8.6-19.3-19.3-19.3H178.6c-21.3 0-38.6 17.3-38.6 38.6V876c0 21.3 17.3 38.6 38.6 38.6h674.8c21.3 0 38.6-17.3 38.6-38.6V471.1c0-10.6-8.7-19.3-19.3-19.3z m52.7-341.9c-7.5-7.5-19.7-7.5-27.2 0L396.4 611.7c-7.5 7.5-7.5 19.7 0 27.2s19.7 7.5 27.2 0l501.8-501.8c7.5-7.5 7.5-19.7 0-27.2z" p-id="12028" fill="#707070"></path></svg>