<svg t="1587446855704" class="icon" viewBox="0 0 1024 1024" version="1.1" xmlns="http://www.w3.org/2000/svg" p-id="4370" width="48" height="48"><path d="M170.666667 106.666667h682.666666c35.328 0 64 28.629333 64 63.914666v541.44C917.333333 747.349333 888.768 768 853.333333 768h-201.408l-109.504 117.461333a42.730667 42.730667 0 0 1-60.565333-0.021333L371.818667 768H170.666667c-35.328 0-64-20.714667-64-55.978667V170.581333A63.872 63.872 0 0 1 170.666667 106.666667z m448 448v42.666666H405.333333v-42.666666h213.333334z m42.666666-42.666667H362.666667v149.333333h42.666666v-21.333333h213.333334v21.333333h42.666666v-149.333333z m-277.333333-65.813333V469.333333h256v-23.146666l82.24 47.488 21.333333-36.970667-231.530666-133.205333L512 323.413333l-231.573333 133.290667 21.333333 36.970667L384 446.186667zM417.813333 426.666667L512 372.288 606.186667 426.666667h-188.373334z m162.688-149.333334h35.498667l33.28 74.773334 38.997333-17.365334L662.72 277.333333H746.666667v-42.666666h-141.525334l13.141334-22.762667-36.949334-21.333333-64 110.848 36.949334 21.333333L580.522667 277.333333z m-214.528-42.666666l12.309334-21.333334L341.333333 192l-64 110.848 36.949334 21.333333L341.333333 277.333333h40.384l33.28 74.773334 38.997334-17.365334L428.437333 277.333333H512v-42.666666h-146.026667z" fill="#707070" p-id="4371"></path></svg>