<svg t="1585191855733" class="icon" viewBox="0 0 1024 1024" version="1.1" xmlns="http://www.w3.org/2000/svg" p-id="2258" width="32" height="32"><path d="M298.666667 853.333333h-85.333334c-23.514074 0-42.666667-19.152593-42.666666-42.666666V440.888889c0-23.514074 19.152593-42.666667 42.666666-42.666667h85.333334c23.514074 0 42.666667 19.152593 42.666666 42.666667v369.777778c0 23.514074-19.152593 42.666667-42.666666 42.666666z m-85.333334-42.666666h85.333334V440.888889c0 0.094815 0 0-0.094815 0H213.333333v369.777778z" p-id="2259"></path><path d="M612.02963 853.333333h-270.222223c-11.757037 0-21.333333-9.576296-21.333333-21.333333v-403.911111c0-11.757037 9.576296-21.333333 21.333333-21.333333 17.825185 0 37.831111-14.601481 59.448889-43.330371C422.874074 334.696296 442.405926 296.77037 459.662222 263.395556c29.866667-57.837037 47.881481-92.728889 76.610371-92.728889 84.574815 0 97.185185 51.958519 97.185185 82.962963 0 41.339259-24.462222 98.133333-41.813334 133.214814h162.133334c54.897778 0 99.555556 44.657778 99.555555 99.555556v61.62963c0 60.302222-9.860741 113.303704-29.202963 157.582222-16.592593 37.831111-40.201481 69.404444-70.068148 93.961481-48.545185 39.632593-106.856296 53.76-142.032592 53.76zM363.140741 810.666667h248.888889c6.257778 0 62.577778-1.232593 114.915555-44.183704 55.561481-45.511111 83.721481-118.992593 83.721482-218.453333v-61.62963c0-31.383704-25.505185-56.888889-56.888889-56.888889H556.088889c-7.585185 0-14.696296-4.077037-18.488889-10.714074s-3.792593-14.696296 0-21.333333c14.791111-25.505185 53.096296-101.167407 53.096296-143.834074 0-19.152593-4.077037-39.537778-51.674074-40.296297-1.991111 1.801481-6.731852 6.826667-14.885926 20.195556-8.059259 13.274074-17.066667 30.814815-26.642963 49.398518-34.228148 66.37037-75.946667 147.152593-134.352592 163.460741V810.666667z" p-id="2260"></path></svg>