<svg t="1586764107836" class="icon" viewBox="0 0 1024 1024" version="1.1" xmlns="http://www.w3.org/2000/svg" p-id="2977" width="32" height="32"><path d="M226.3 764.6v85.7c0 4.1-1.3 7.6-4 10.2-2.7 2.7-6.1 4-10.2 4h-85.7c-4.1 0-7.6-1.3-10.2-4-2.7-2.7-4-6.1-4-10.2v-85.7c0-4.1 1.3-7.6 4-10.2 2.7-2.7 6.1-4 10.2-4H212c4.1 0 7.6 1.3 10.2 4 2.8 2.6 4.1 6.1 4.1 10.2z m171.4-57.2v142.9c0 4.1-1.3 7.6-4 10.2-2.7 2.7-6.1 4-10.2 4h-85.7c-4.1 0-7.6-1.3-10.2-4-2.7-2.7-4-6.1-4-10.2V707.4c0-4.1 1.3-7.6 4-10.2 2.7-2.7 6.1-4 10.2-4h85.7c4.1 0 7.6 1.3 10.2 4 2.7 2.7 4 6.1 4 10.2z m171.5-114.2v257.2c0 4.1-1.3 7.6-4 10.2-2.7 2.7-6.1 4-10.2 4h-85.7c-4.1 0-7.6-1.3-10.2-4-2.6-2.7-4-6.1-4-10.2V593.2c0-4.1 1.3-7.6 4-10.2 2.7-2.6 6.1-4 10.2-4H555c4.1 0 7.6 1.3 10.2 4 2.6 2.6 4 6 4 10.2z m171.3-171.5v428.6c0 4.1-1.3 7.6-4 10.2-2.7 2.7-6.1 4-10.2 4h-85.7c-4.1 0-7.6-1.3-10.2-4-2.6-2.7-4-6.1-4-10.2V421.7c0-4.1 1.3-7.6 4-10.2 2.7-2.7 6.1-4 10.2-4h85.7c4.1 0 7.6 1.3 10.2 4 2.7 2.7 4 6.1 4 10.2zM912 193.2v657.2c0 4.1-1.3 7.6-4 10.2-2.7 2.7-6.1 4-10.2 4H812c-4.1 0-7.6-1.3-10.2-4-2.6-2.7-4-6.1-4-10.2V193.2c0-4.1 1.3-7.6 4-10.2 2.7-2.7 6.1-4 10.2-4h85.7c4.1 0 7.6 1.3 10.2 4 2.8 2.6 4.1 6 4.1 10.2z" p-id="2978" fill="#2c2c2c"></path></svg>