<svg t="1586764180306" class="icon" viewBox="0 0 1024 1024" version="1.1" xmlns="http://www.w3.org/2000/svg" p-id="3934" width="32" height="32"><path d="M938.666667 426.666667l0-85.333333c0-46.933333-38.4-85.333333-85.333333-85.333333L128 256c-46.933333 0-85.333333 38.4-85.333333 85.333333l0 341.333333c0 46.933333 38.4 85.333333 85.333333 85.333333l725.333333 0c46.933333 0 85.333333-38.4 85.333333-85.333333l0-85.333333c23.466667 0 42.666667-19.2 42.666667-42.666667l0-85.333333C981.333333 445.866667 962.133333 426.666667 938.666667 426.666667zM896 682.666667c0 23.466667-19.2 42.666667-42.666667 42.666667L128 725.333333c-23.466667 0-42.666667-19.2-42.666667-42.666667L85.333333 341.333333c0-23.466667 19.2-42.666667 42.666667-42.666667l725.333333 0c23.466667 0 42.666667 19.2 42.666667 42.666667L896 682.666667zM128 682.666667l384 0L512 341.333333 128 341.333333 128 682.666667z" p-id="3935" fill="#2c2c2c"></path></svg>